<svg xmlns="http://www.w3.org/2000/svg" xmlns:xlink="http://www.w3.org/1999/xlink" version="1.1" x="0px" y="0px" viewBox="0 0 100 125" enable-background="new 0 0 100 100" xml:space="preserve"><g><g><circle cx="16.302" cy="23.792" r="1.326"/><circle cx="20.047" cy="23.792" r="1.326"/><circle cx="23.791" cy="23.792" r="1.326"/><circle cx="27.535" cy="23.792" r="1.326"/><circle cx="31.28" cy="23.792" r="1.326"/><circle cx="35.023" cy="23.792" r="1.326"/><circle cx="38.768" cy="23.792" r="1.327"/><circle cx="42.512" cy="23.792" r="1.327"/><circle cx="53.743" cy="23.792" r="1.327"/><circle cx="64.977" cy="23.792" r="1.326"/><circle cx="76.209" cy="23.792" r="1.327"/><circle cx="12.558" cy="27.536" r="1.326"/><circle cx="16.302" cy="27.536" r="1.326"/><circle cx="20.047" cy="27.536" r="1.326"/><circle cx="23.791" cy="27.536" r="1.326"/><circle cx="31.28" cy="27.536" r="1.326"/><circle cx="35.023" cy="27.536" r="1.326"/><circle cx="38.768" cy="27.536" r="1.327"/><circle cx="61.232" cy="27.536" r="1.327"/><circle cx="68.721" cy="27.536" r="1.326"/><circle cx="72.465" cy="27.536" r="1.326"/><circle cx="76.209" cy="27.536" r="1.327"/><circle cx="79.953" cy="27.536" r="1.327"/><circle cx="83.697" cy="27.536" r="1.326"/><circle cx="87.439" cy="27.536" r="1.327"/><circle cx="1.326" cy="31.281" r="1.327"/><circle cx="5.07" cy="31.281" r="1.327"/><circle cx="8.813" cy="31.281" r="1.327"/><circle cx="12.558" cy="31.281" r="1.326"/><circle cx="16.302" cy="31.281" r="1.326"/><circle cx="20.047" cy="31.281" r="1.326"/><circle cx="23.791" cy="31.281" r="1.326"/><circle cx="27.535" cy="31.281" r="1.326"/><circle cx="35.023" cy="31.281" r="1.326"/><circle cx="38.768" cy="31.281" r="1.327"/><path d="M55.068,31.281c0,0.729-0.592,1.325-1.323,1.325c-0.733,0-1.329-0.594-1.329-1.325c0-0.733,0.596-1.327,1.329-1.327    S55.068,30.548,55.068,31.281z"/><circle cx="57.488" cy="31.281" r="1.326"/><circle cx="61.232" cy="31.281" r="1.327"/><circle cx="64.977" cy="31.281" r="1.326"/><circle cx="68.721" cy="31.281" r="1.326"/><circle cx="72.465" cy="31.281" r="1.326"/><circle cx="76.209" cy="31.281" r="1.327"/><circle cx="79.953" cy="31.281" r="1.327"/><circle cx="83.697" cy="31.281" r="1.326"/><circle cx="87.439" cy="31.281" r="1.327"/><circle cx="91.186" cy="31.281" r="1.327"/><circle cx="1.326" cy="35.023" r="1.327"/><circle cx="5.07" cy="35.023" r="1.327"/><circle cx="8.813" cy="35.023" r="1.327"/><circle cx="12.558" cy="35.023" r="1.326"/><circle cx="16.302" cy="35.023" r="1.326"/><circle cx="20.047" cy="35.023" r="1.326"/><circle cx="23.791" cy="35.023" r="1.326"/><circle cx="27.535" cy="35.023" r="1.326"/><circle cx="35.023" cy="35.023" r="1.326"/><circle cx="42.512" cy="35.023" r="1.327"/><circle cx="50" cy="35.023" r="1.327"/><circle cx="53.743" cy="35.023" r="1.327"/><circle cx="57.488" cy="35.023" r="1.326"/><circle cx="61.232" cy="35.023" r="1.327"/><circle cx="64.977" cy="35.023" r="1.326"/><circle cx="68.721" cy="35.023" r="1.326"/><circle cx="72.465" cy="35.023" r="1.326"/><circle cx="76.209" cy="35.023" r="1.327"/><circle cx="79.953" cy="35.023" r="1.327"/><circle cx="83.697" cy="35.023" r="1.326"/><circle cx="87.439" cy="35.023" r="1.327"/><circle cx="91.186" cy="35.023" r="1.327"/><circle cx="1.326" cy="38.768" r="1.327"/><circle cx="5.07" cy="38.768" r="1.327"/><circle cx="8.813" cy="38.768" r="1.327"/><circle cx="12.558" cy="38.768" r="1.326"/><circle cx="16.302" cy="38.768" r="1.326"/><circle cx="20.047" cy="38.768" r="1.326"/><circle cx="23.791" cy="38.768" r="1.326"/><circle cx="27.535" cy="38.768" r="1.326"/><circle cx="46.256" cy="38.768" r="1.327"/><circle cx="50" cy="38.768" r="1.327"/><circle cx="53.743" cy="38.768" r="1.327"/><circle cx="57.488" cy="38.768" r="1.326"/><circle cx="61.232" cy="38.768" r="1.327"/><circle cx="64.977" cy="38.768" r="1.326"/><circle cx="68.721" cy="38.768" r="1.326"/><circle cx="72.465" cy="38.768" r="1.326"/><circle cx="76.209" cy="38.768" r="1.327"/><circle cx="79.953" cy="38.768" r="1.327"/><circle cx="83.697" cy="38.768" r="1.326"/><circle cx="87.439" cy="38.768" r="1.327"/><circle cx="91.186" cy="38.768" r="1.327"/><circle cx="12.558" cy="42.513" r="1.326"/><circle cx="16.302" cy="42.513" r="1.326"/><circle cx="20.047" cy="42.513" r="1.326"/><circle cx="23.791" cy="42.513" r="1.326"/><circle cx="27.535" cy="42.513" r="1.326"/><circle cx="31.28" cy="42.513" r="1.326"/><circle cx="46.256" cy="42.513" r="1.327"/><circle cx="50" cy="42.513" r="1.327"/><circle cx="53.743" cy="42.513" r="1.327"/><circle cx="57.488" cy="42.513" r="1.326"/><circle cx="61.232" cy="42.513" r="1.327"/><circle cx="64.977" cy="42.513" r="1.326"/><circle cx="68.721" cy="42.513" r="1.326"/><circle cx="72.465" cy="42.513" r="1.326"/><circle cx="76.209" cy="42.513" r="1.327"/><circle cx="79.953" cy="42.513" r="1.327"/><circle cx="83.697" cy="42.513" r="1.326"/><circle cx="91.186" cy="42.513" r="1.327"/><circle cx="12.558" cy="46.257" r="1.326"/><circle cx="16.302" cy="46.257" r="1.326"/><circle cx="20.047" cy="46.257" r="1.326"/><circle cx="23.791" cy="46.257" r="1.326"/><circle cx="27.535" cy="46.257" r="1.326"/><circle cx="46.256" cy="46.257" r="1.327"/><circle cx="53.743" cy="46.257" r="1.327"/><circle cx="57.488" cy="46.257" r="1.326"/><circle cx="61.232" cy="46.257" r="1.327"/><circle cx="64.977" cy="46.257" r="1.326"/><circle cx="68.721" cy="46.257" r="1.326"/><circle cx="72.465" cy="46.257" r="1.326"/><circle cx="76.209" cy="46.257" r="1.327"/><circle cx="79.953" cy="46.257" r="1.327"/><circle cx="83.697" cy="46.257" r="1.326"/><circle cx="87.439" cy="46.257" r="1.327"/><circle cx="16.302" cy="50" r="1.326"/><circle cx="20.047" cy="50" r="1.326"/><circle cx="23.791" cy="50" r="1.326"/><circle cx="42.512" cy="50" r="1.327"/><circle cx="46.256" cy="50" r="1.327"/><circle cx="50" cy="50" r="1.327"/><circle cx="53.743" cy="50" r="1.327"/><circle cx="57.488" cy="50" r="1.326"/><circle cx="61.232" cy="50" r="1.327"/><circle cx="64.977" cy="50" r="1.326"/><circle cx="68.721" cy="50" r="1.326"/><circle cx="72.465" cy="50" r="1.326"/><circle cx="76.209" cy="50" r="1.327"/><circle cx="79.953" cy="50" r="1.327"/><circle cx="83.697" cy="50" r="1.326"/><path d="M21.373,53.747c0,0.729-0.594,1.323-1.326,1.323c-0.733,0-1.327-0.594-1.327-1.323c0-0.735,0.594-1.329,1.327-1.329    C20.779,52.418,21.373,53.012,21.373,53.747z"/><path d="M25.118,53.747c0,0.729-0.594,1.323-1.327,1.323c-0.732,0-1.326-0.594-1.326-1.323c0-0.735,0.593-1.329,1.326-1.329    C24.523,52.418,25.118,53.012,25.118,53.747z"/><path d="M28.861,53.747c0,0.729-0.594,1.323-1.326,1.323c-0.733,0-1.327-0.594-1.327-1.323c0-0.735,0.594-1.329,1.327-1.329    C28.267,52.418,28.861,53.012,28.861,53.747z"/><path d="M43.838,53.747c0,0.729-0.594,1.323-1.326,1.323c-0.733,0-1.327-0.594-1.327-1.323c0-0.735,0.594-1.329,1.327-1.329    C43.244,52.418,43.838,53.012,43.838,53.747z"/><path d="M47.583,53.747c0,0.729-0.594,1.323-1.327,1.323c-0.732,0-1.326-0.594-1.326-1.323c0-0.735,0.594-1.329,1.326-1.329    C46.989,52.418,47.583,53.012,47.583,53.747z"/><path d="M51.327,53.747c0,0.729-0.595,1.323-1.327,1.323c-0.734,0-1.327-0.594-1.327-1.323c0-0.735,0.593-1.329,1.327-1.329    C50.732,52.418,51.327,53.012,51.327,53.747z"/><path d="M55.068,53.747c0,0.729-0.592,1.323-1.323,1.323c-0.733,0-1.329-0.594-1.329-1.323c0-0.735,0.596-1.329,1.329-1.329    S55.068,53.012,55.068,53.747z"/><path d="M58.814,53.747c0,0.729-0.596,1.323-1.328,1.323c-0.731,0-1.324-0.594-1.324-1.323c0-0.735,0.593-1.329,1.324-1.329    C58.219,52.418,58.814,53.012,58.814,53.747z"/><path d="M62.559,53.747c0,0.729-0.594,1.323-1.326,1.323s-1.326-0.594-1.326-1.323c0-0.735,0.594-1.329,1.326-1.329    S62.559,53.012,62.559,53.747z"/><path d="M70.046,53.747c0,0.729-0.592,1.323-1.325,1.323c-0.732,0-1.326-0.594-1.326-1.323c0-0.735,0.594-1.329,1.326-1.329    C69.454,52.418,70.046,53.012,70.046,53.747z"/><path d="M77.536,53.747c0,0.729-0.595,1.323-1.327,1.323s-1.327-0.594-1.327-1.323c0-0.735,0.595-1.329,1.327-1.329    S77.536,53.012,77.536,53.747z"/><path d="M81.279,53.747c0,0.729-0.594,1.323-1.326,1.323s-1.327-0.594-1.327-1.323c0-0.735,0.595-1.329,1.327-1.329    C80.688,52.418,81.279,53.012,81.279,53.747z"/><circle cx="27.535" cy="57.489" r="1.326"/><circle cx="31.28" cy="57.489" r="1.326"/><circle cx="46.256" cy="57.489" r="1.327"/><circle cx="50" cy="57.489" r="1.327"/><circle cx="53.743" cy="57.489" r="1.327"/><circle cx="57.488" cy="57.489" r="1.326"/><circle cx="27.535" cy="61.234" r="1.326"/><circle cx="31.28" cy="61.234" r="1.326"/><circle cx="23.791" cy="61.234" r="1.326"/><circle cx="35.023" cy="61.234" r="1.326"/><circle cx="50" cy="61.234" r="1.327"/><path d="M55.068,61.234c0,0.731-0.592,1.324-1.323,1.324c-0.733,0-1.329-0.593-1.329-1.324c0-0.733,0.596-1.327,1.329-1.327    S55.068,60.501,55.068,61.234z"/><circle cx="57.488" cy="61.234" r="1.326"/><circle cx="76.209" cy="61.234" r="1.327"/><circle cx="79.953" cy="61.234" r="1.327"/><circle cx="83.697" cy="61.234" r="1.326"/><circle cx="87.439" cy="61.234" r="1.327"/><circle cx="27.535" cy="64.979" r="1.326"/><circle cx="31.28" cy="64.979" r="1.326"/><circle cx="35.023" cy="64.979" r="1.326"/><circle cx="50" cy="64.979" r="1.327"/><path d="M55.068,64.979c0,0.731-0.592,1.326-1.323,1.326c-0.733,0-1.329-0.595-1.329-1.326s0.596-1.328,1.329-1.328    C54.479,63.648,55.068,64.246,55.068,64.979z"/><circle cx="61.232" cy="64.979" r="1.327"/><circle cx="79.953" cy="64.979" r="1.327"/><circle cx="83.697" cy="64.979" r="1.326"/><circle cx="83.697" cy="68.722" r="1.326"/><circle cx="87.439" cy="64.979" r="1.327"/><circle cx="91.186" cy="64.979" r="1.327"/><circle cx="27.535" cy="68.722" r="1.326"/><circle cx="31.28" cy="68.722" r="1.326"/><circle cx="53.743" cy="68.722" r="1.327"/><circle cx="79.953" cy="68.722" r="1.327"/><circle cx="87.439" cy="68.722" r="1.327"/><circle cx="27.535" cy="72.466" r="1.326"/><circle cx="27.535" cy="76.209" r="1.326"/><circle cx="94.93" cy="31.281" r="1.326"/><circle cx="94.93" cy="35.023" r="1.326"/><circle cx="98.674" cy="35.023" r="1.326"/><circle cx="94.93" cy="72.466" r="1.326"/></g></g><text x="0" y="115" fill="#000000" font-size="5px" font-weight="bold" font-family="'Helvetica Neue', Helvetica, Arial-Unicode, Arial, Sans-serif">Created by Juan Pablo Bravo</text><text x="0" y="120" fill="#000000" font-size="5px" font-weight="bold" font-family="'Helvetica Neue', Helvetica, Arial-Unicode, Arial, Sans-serif">from the Noun Project</text></svg>