<svg xmlns="http://www.w3.org/2000/svg" viewBox="0 0 920 1150" version="1.1" x="0px" y="0px"><path fill="#000000" opacity="1.00" d=" M 430.01 55.93 C 444.14 53.23 458.65 51.93 473.01 53.40 C 486.99 54.74 500.87 57.53 514.23 61.89 C 524.30 65.12 533.36 70.76 541.94 76.81 C 533.36 72.65 525.14 67.59 515.93 64.89 C 502.03 60.70 487.61 58.24 473.14 57.25 C 455.53 55.96 437.94 58.91 420.93 63.26 C 388.99 71.62 357.87 84.48 331.02 103.92 C 316.95 114.07 304.78 126.85 295.53 141.55 C 279.26 166.76 270.31 195.84 264.05 224.97 C 259.23 247.03 255.06 269.39 254.42 292.03 C 253.86 324.36 259.73 356.32 264.76 388.13 C 269.23 416.15 274.08 444.65 270.66 473.07 C 268.33 493.30 263.18 513.27 254.83 531.86 C 247.96 547.33 239.91 562.23 232.17 577.27 C 222.81 595.41 212.68 613.22 205.30 632.30 C 196.10 655.65 190.59 680.76 191.74 705.95 C 192.64 724.56 196.18 742.94 200.79 760.96 C 201.53 763.91 202.18 766.89 202.39 769.94 C 199.76 764.65 198.60 758.82 196.90 753.20 C 191.83 733.55 188.19 713.33 188.67 692.97 C 189.08 671.61 194.10 650.56 201.48 630.60 C 209.16 609.79 219.80 590.28 229.52 570.39 C 237.18 554.57 245.22 538.88 251.42 522.41 C 259.56 499.93 263.69 475.94 263.16 452.04 C 262.11 426.36 256.75 401.16 252.67 375.86 C 248.92 352.36 245.31 328.76 244.55 304.94 C 243.72 284.78 246.20 264.66 249.85 244.86 C 255.71 213.66 262.83 182.13 277.95 153.94 C 286.26 138.07 296.88 123.30 310.04 111.09 C 329.15 93.79 352.14 81.38 375.91 71.74 C 393.42 64.87 411.54 59.54 430.01 55.93 Z"/><path fill="#000000" opacity="1.00" d=" M 567.72 94.58 C 575.22 94.28 582.68 95.50 590.13 96.31 C 610.10 98.63 629.36 105.96 646.27 116.76 C 662.42 126.95 673.64 143.06 682.48 159.65 C 690.38 174.33 696.07 190.19 699.22 206.56 C 704.72 233.00 704.93 260.25 702.68 287.07 C 700.84 309.13 698.02 331.09 695.50 353.08 C 692.29 381.65 689.50 410.29 688.06 439.01 C 685.10 497.91 696.98 556.30 711.97 612.94 C 713.21 616.77 715.55 620.10 717.49 623.60 C 726.48 639.24 733.70 656.08 737.14 673.86 C 740.25 689.33 741.18 705.61 736.98 720.97 C 732.86 736.74 725.36 751.30 719.20 766.30 C 713.42 779.78 708.39 793.56 703.44 807.37 C 702.19 810.71 701.13 814.25 698.70 816.97 C 697.41 814.02 698.58 810.91 699.24 807.97 C 703.61 790.54 709.31 773.47 715.52 756.62 C 720.64 742.51 726.21 728.43 728.75 713.57 C 731.56 696.58 729.04 679.15 724.18 662.78 C 719.61 646.82 712.36 631.82 704.91 617.05 C 694.74 596.65 683.65 576.60 675.77 555.16 C 672.52 545.21 669.14 534.98 669.17 524.41 C 676.02 553.67 692.26 579.26 706.75 605.17 C 695.10 563.55 685.50 521.16 682.08 478.00 C 679.75 451.04 681.01 423.96 682.57 397.00 C 684.00 371.45 686.45 345.98 689.34 320.55 C 692.22 293.81 695.31 266.90 693.56 239.96 C 692.14 218.13 688.15 196.29 679.93 175.94 C 673.99 161.75 667.03 147.75 657.17 135.83 C 646.23 122.39 630.67 113.74 614.95 107.05 C 601.88 101.42 587.78 99.00 573.85 96.59 C 571.74 96.17 569.44 95.98 567.72 94.58 Z"/><path fill="#000000" opacity="1.00" d=" M 534.74 159.88 C 536.10 156.01 536.98 151.78 539.86 148.67 C 538.38 160.59 535.78 172.54 530.20 183.27 C 522.49 198.08 510.98 210.64 498.19 221.24 C 485.69 231.36 471.81 239.58 458.33 248.29 C 440.40 259.84 422.55 271.59 405.88 284.93 C 374.84 309.35 350.73 343.82 342.69 382.85 C 341.93 387.10 344.01 391.07 345.09 395.05 C 347.95 403.70 350.75 412.42 354.75 420.61 L 354.75 420.62 C 360.87 436.26 367.95 451.83 377.94 465.42 C 385.55 476.57 392.99 487.90 401.98 498.02 C 410.39 506.90 419.35 515.35 429.64 522.04 C 440.05 530.28 452.30 536.12 465.06 539.73 C 467.73 540.58 470.54 540.78 473.33 540.92 C 476.55 541.15 479.73 541.79 482.94 542.25 C 487.14 542.66 491.36 542.20 495.58 542.38 C 500.09 542.62 504.64 542.13 509.13 542.84 C 500.04 548.94 488.66 550.02 478.05 551.11 C 467.92 550.73 457.69 549.98 447.96 546.96 C 443.81 546.10 440.05 543.39 435.71 543.63 C 436.99 551.46 436.93 559.41 437.93 567.27 C 438.64 573.47 438.11 579.78 439.43 585.91 C 440.93 592.78 438.88 600.01 441.33 606.73 C 441.72 608.68 441.69 610.70 441.73 612.69 C 441.64 619.58 441.84 626.46 441.71 633.34 C 441.15 638.79 438.23 644.14 434.09 647.70 C 418.35 658.88 398.91 663.03 382.65 673.25 C 381.47 673.95 380.23 674.58 379.01 675.21 C 361.48 684.14 344.71 694.43 327.38 703.73 C 325.47 704.86 323.30 705.39 321.10 705.53 C 321.16 704.78 321.26 703.26 321.32 702.51 C 327.42 697.21 334.25 692.84 340.97 688.39 C 347.76 684.91 353.74 680.11 360.30 676.23 C 366.00 672.41 372.13 669.26 377.57 665.07 C 389.27 657.50 401.83 651.38 413.71 644.12 C 417.69 641.99 421.07 638.99 424.51 636.13 C 427.48 633.80 427.70 629.67 427.52 626.21 C 427.56 621.63 427.50 617.05 427.90 612.50 C 430.24 604.89 429.21 596.86 429.69 589.04 C 429.35 578.31 430.89 567.66 431.20 556.94 C 431.20 551.64 433.02 546.63 433.84 541.45 C 430.22 539.46 426.67 537.36 422.93 535.60 C 410.59 528.61 400.24 518.66 390.52 508.44 C 385.93 502.84 381.06 497.41 377.26 491.23 C 374.34 485.45 370.27 480.36 367.19 474.67 C 362.47 466.94 359.33 458.41 355.26 450.34 L 355.20 450.21 C 352.76 442.93 349.56 435.93 347.17 428.64 C 345.04 422.98 343.57 417.08 341.14 411.54 C 340.26 409.35 340.00 406.98 339.65 404.66 C 338.57 413.46 337.91 422.29 337.41 431.13 C 337.08 433.43 337.37 436.36 335.09 437.75 C 333.58 431.62 334.01 425.26 333.81 419.01 C 334.18 411.08 334.01 403.10 335.22 395.23 C 336.22 389.44 334.68 383.68 333.40 378.07 C 331.82 371.72 331.26 365.18 329.97 358.77 C 328.73 353.06 329.03 347.11 327.27 341.51 C 325.94 332.52 325.18 323.43 325.43 314.32 C 325.71 307.87 325.21 301.40 325.93 294.97 C 328.11 320.96 332.31 346.76 338.60 372.08 C 338.96 370.97 339.32 369.86 339.64 368.74 C 346.17 342.65 359.94 318.73 377.45 298.47 C 390.42 283.62 406.22 271.59 422.35 260.38 C 440.70 247.49 459.76 235.65 478.74 223.73 C 495.24 213.50 510.88 201.22 522.24 185.30 C 527.81 177.61 531.72 168.85 534.74 159.88 Z"/><path fill="#000000" opacity="1.00" d=" M 600.80 159.93 C 611.89 170.92 622.60 182.37 632.29 194.62 C 644.29 209.99 653.60 227.35 660.41 245.59 C 675.35 285.04 682.76 327.88 677.92 370.00 C 675.28 393.81 671.23 417.43 667.19 441.03 C 663.45 462.71 658.24 484.10 652.23 505.26 C 647.87 520.41 645.40 536.06 644.31 551.78 C 643.91 554.21 644.33 557.19 642.22 558.95 C 640.78 551.03 641.56 542.94 641.94 534.96 C 643.20 513.98 649.40 493.78 653.12 473.19 C 657.86 448.62 660.04 423.66 664.09 398.98 C 667.52 376.51 670.59 353.79 669.21 331.01 C 668.01 307.70 664.51 284.48 658.20 262.00 C 652.51 241.37 644.56 221.18 632.88 203.17 C 623.52 187.78 610.47 175.07 600.80 159.93 Z"/><path fill="#000000" opacity="1.00" d=" M 574.39 235.61 C 561.93 214.74 551.47 192.02 548.26 167.72 C 554.17 188.36 563.37 208.00 574.92 226.07 C 589.60 249.55 608.88 269.65 624.32 292.59 C 627.59 297.27 630.32 302.33 633.76 306.89 L 633.80 306.70 C 634.98 299.23 635.37 291.62 635.72 284.07 C 635.81 277.50 635.36 270.83 636.44 264.34 C 636.90 263.98 637.82 263.27 638.29 262.91 C 639.04 276.27 640.06 289.62 639.67 303.02 C 640.03 309.08 638.13 315.47 640.59 321.26 C 648.06 338.20 651.15 356.72 652.21 375.10 C 653.58 398.79 650.29 422.38 648.48 445.95 C 647.18 461.97 646.20 478.02 645.46 494.07 C 645.40 496.23 645.12 498.41 643.91 500.26 C 641.24 497.19 641.81 492.83 641.38 489.07 C 640.24 460.71 642.21 432.35 642.86 403.99 C 643.29 383.19 642.44 362.15 637.40 341.87 C 637.45 344.74 637.62 347.63 637.18 350.48 C 634.69 359.47 634.80 368.92 632.71 377.99 C 629.24 399.47 621.33 419.85 613.89 440.18 C 613.54 441.08 613.17 441.97 612.79 442.86 C 611.16 447.04 609.12 451.04 607.24 455.12 C 605.50 458.41 603.72 461.67 601.84 464.89 C 599.61 468.64 601.02 473.09 601.29 477.15 C 603.97 495.90 610.90 513.80 619.35 530.67 C 629.26 549.94 639.77 568.90 650.07 587.97 C 657.91 602.52 666.76 616.50 675.37 630.61 C 684.77 646.24 693.35 662.67 697.58 680.54 C 702.58 701.27 704.33 722.90 701.67 744.10 C 699.48 760.57 695.66 776.77 692.49 793.07 C 689.49 807.74 686.95 822.48 684.11 837.18 C 683.50 838.83 683.76 841.68 681.47 841.94 C 681.95 827.68 684.68 813.61 686.71 799.52 C 689.64 780.74 693.53 762.09 695.25 743.15 C 696.79 724.17 694.52 704.99 689.63 686.63 C 684.66 666.95 675.02 648.86 664.45 631.67 C 656.11 618.17 647.71 604.70 640.35 590.64 C 630.85 572.55 621.80 554.21 613.47 535.55 C 606.64 519.99 601.08 503.70 598.74 486.81 C 598.01 480.93 597.72 474.95 598.41 469.06 C 597.94 470.42 597.59 471.86 596.83 473.10 C 589.95 483.21 582.13 492.60 574.25 501.92 C 574.69 506.22 574.35 510.71 576.35 514.70 C 585.06 534.32 595.50 553.23 602.53 573.57 C 609.10 591.61 608.97 611.28 606.61 630.10 C 606.01 633.54 605.98 637.57 603.04 639.98 C 600.04 637.98 600.46 634.15 600.25 631.03 C 599.94 618.04 599.76 604.95 597.32 592.15 C 592.85 570.07 581.34 550.28 575.18 528.70 C 573.20 521.35 570.21 513.39 572.98 505.86 C 573.26 504.77 573.82 502.59 574.09 501.50 C 566.69 510.48 557.55 517.92 548.17 524.70 C 543.48 527.11 539.11 530.07 534.47 532.58 C 534.14 539.13 536.19 545.47 536.13 552.01 C 536.15 558.12 537.52 564.10 537.96 570.18 C 538.18 573.07 538.83 575.90 539.39 578.74 C 539.42 579.26 539.48 580.31 539.50 580.83 C 540.42 594.34 544.00 607.52 545.71 620.95 C 547.05 626.54 546.73 632.40 548.33 637.93 C 549.06 640.98 552.59 641.53 555.08 642.49 C 556.36 642.94 557.58 643.57 558.82 644.17 C 563.02 646.44 567.41 648.40 571.35 651.14 C 585.42 660.67 599.81 669.75 614.21 678.79 C 621.49 682.94 628.32 687.93 636.01 691.32 C 644.79 696.01 653.30 701.22 662.09 705.92 C 662.35 706.58 662.87 707.90 663.13 708.55 C 658.91 708.79 655.17 706.48 651.46 704.81 C 647.62 702.38 643.37 700.75 639.35 698.67 C 635.45 696.68 631.64 694.50 627.51 693.02 C 624.87 691.98 622.50 690.39 619.92 689.24 C 613.92 685.62 607.51 682.70 601.65 678.86 C 597.85 675.99 593.57 673.88 589.48 671.47 C 577.09 664.37 564.55 657.14 550.71 653.24 C 546.20 651.65 540.98 650.96 537.48 647.41 C 533.08 642.15 534.20 634.86 532.32 628.66 C 532.30 631.48 532.46 634.31 532.76 637.13 C 532.10 633.43 531.44 629.70 531.74 625.93 C 531.86 618.59 530.10 611.38 529.17 604.13 C 528.79 599.69 528.89 595.23 528.34 590.81 C 527.16 581.92 527.60 572.94 527.50 564.01 C 527.67 554.68 526.88 545.27 528.61 536.05 C 524.69 536.27 521.02 540.04 517.17 538.20 C 524.27 534.15 531.42 530.10 537.80 524.94 C 545.40 519.23 551.80 512.15 558.46 505.41 C 568.38 493.64 577.09 480.84 584.23 467.20 C 585.09 465.11 586.13 463.10 587.23 461.14 C 587.49 460.68 588.01 459.76 588.27 459.31 C 589.75 456.84 591.20 454.36 592.38 451.73 C 597.04 441.55 602.19 431.55 605.71 420.90 C 616.20 390.57 625.59 359.72 630.81 328.01 C 631.12 326.30 631.11 324.55 630.53 322.91 C 615.74 291.42 592.35 265.19 574.39 235.61 Z"/><path fill="#000000" opacity="0.41" d=" M 635.36 264.06 C 635.13 262.44 636.70 261.41 638.17 261.39 C 639.42 264.43 640.04 267.71 640.34 270.97 C 641.02 287.73 640.68 304.50 640.59 321.26 C 638.13 315.47 640.03 309.08 639.67 303.02 C 640.06 289.62 639.04 276.27 638.29 262.91 C 637.82 263.27 636.90 263.98 636.44 264.34 C 635.36 270.83 635.81 277.50 635.72 284.07 C 635.38 284.12 634.69 284.20 634.35 284.25 C 634.10 277.50 634.89 270.78 635.36 264.06 Z"/><path fill="#000000" opacity="0.71" d=" M 634.35 284.25 C 634.69 284.20 635.38 284.12 635.72 284.07 C 635.37 291.62 634.98 299.23 633.80 306.70 C 632.56 299.31 634.78 291.74 634.35 284.25 Z"/><path fill="#000000" opacity="0.44" d=" M 324.43 289.78 C 328.92 292.28 326.67 297.95 327.69 302.04 C 329.03 308.34 328.60 314.87 330.10 321.15 C 331.39 332.74 333.68 344.18 335.98 355.61 C 337.49 359.90 337.29 364.76 339.64 368.74 C 339.32 369.86 338.96 370.97 338.60 372.08 C 332.31 346.76 328.11 320.96 325.93 294.97 C 325.21 301.40 325.71 307.87 325.43 314.32 C 325.18 313.96 324.70 313.24 324.45 312.88 C 324.00 305.20 323.83 297.46 324.43 289.78 Z"/><path fill="#000000" opacity="0.48" d=" M 630.53 322.91 C 631.11 324.55 631.12 326.30 630.81 328.01 C 625.59 359.72 616.20 390.57 605.71 420.90 C 602.19 431.55 597.04 441.55 592.38 451.73 C 591.20 454.36 589.75 456.84 588.27 459.31 C 588.61 455.38 591.06 452.17 592.58 448.66 C 595.87 441.57 599.16 434.47 602.20 427.28 C 611.60 401.37 619.67 374.95 625.85 348.09 C 627.67 339.74 628.69 331.24 630.53 322.91 Z"/><path fill="#000000" opacity="1.00" d=" M 293.77 358.18 C 292.71 349.74 292.79 341.22 292.44 332.74 C 293.78 343.17 294.97 353.62 296.95 363.96 C 301.84 393.06 301.02 422.94 296.14 451.99 C 292.12 476.51 285.37 500.48 278.20 524.25 C 272.06 544.64 266.17 565.11 260.67 585.68 C 255.95 603.28 251.33 620.92 247.84 638.81 C 243.21 663.90 241.11 689.66 244.14 715.08 C 246.54 732.99 253.28 750.06 262.47 765.56 C 272.45 783.01 284.65 799.06 297.34 814.62 C 300.28 818.46 304.02 821.80 305.87 826.38 C 302.66 825.04 300.39 822.36 297.99 819.99 C 287.03 808.55 277.15 796.13 267.80 783.35 C 259.50 771.27 251.48 758.87 245.81 745.31 C 236.83 725.19 234.54 702.85 234.62 681.05 C 234.75 658.78 237.81 636.60 242.96 614.96 C 248.35 592.49 254.56 570.22 260.88 547.99 C 272.41 507.21 288.42 467.41 293.66 425.10 C 296.58 402.91 296.25 380.40 293.77 358.18 Z"/><path fill="#000000" opacity="0.53" d=" M 327.27 341.51 C 329.03 347.11 328.73 353.06 329.97 358.77 C 331.26 365.18 331.82 371.72 333.40 378.07 C 334.68 383.68 336.22 389.44 335.22 395.23 C 334.78 389.91 333.64 384.70 332.54 379.49 C 330.69 372.10 329.97 364.50 328.45 357.06 C 328.26 351.86 326.07 346.70 327.27 341.51 Z"/><path fill="#000000" opacity="0.49" d=" M 632.71 377.99 C 634.80 368.92 634.69 359.47 637.18 350.48 C 638.22 355.04 636.30 359.45 636.01 363.96 C 633.47 388.72 625.58 412.50 616.75 435.65 C 616.04 437.29 615.61 439.28 613.89 440.18 C 621.33 419.85 629.24 399.47 632.71 377.99 Z"/><path fill="#000000" opacity="0.51" d=" M 345.09 395.05 C 344.01 391.07 341.93 387.10 342.69 382.85 C 345.66 393.57 349.07 404.18 353.26 414.49 C 354.06 416.45 355.12 418.41 354.75 420.61 C 350.75 412.42 347.95 403.70 345.09 395.05 Z"/><path fill="#000000" opacity="0.51" d=" M 341.14 411.54 C 343.57 417.08 345.04 422.98 347.17 428.64 C 349.56 435.93 352.76 442.93 355.20 450.21 C 353.03 449.07 352.77 446.44 351.86 444.42 C 348.07 434.86 344.71 425.14 341.41 415.41 C 341.05 414.14 340.96 412.85 341.14 411.54 Z"/><path fill="#000000" opacity="0.46" d=" M 354.75 420.62 C 355.71 421.23 356.40 422.05 356.83 423.09 C 362.18 436.16 368.34 448.95 375.98 460.85 C 376.88 462.25 377.45 463.82 377.94 465.42 C 367.95 451.83 360.87 436.26 354.75 420.62 Z"/><path fill="#000000" opacity="0.52" d=" M 355.26 450.34 C 359.33 458.41 362.47 466.94 367.19 474.67 C 370.27 480.36 374.34 485.45 377.26 491.23 C 374.24 489.04 372.65 485.57 370.61 482.55 C 364.84 473.55 360.05 463.95 355.90 454.11 C 355.43 452.90 355.22 451.64 355.26 450.34 Z"/><path fill="#000000" opacity="1.00" d=" M 352.60 499.05 C 350.94 510.62 348.96 522.31 343.98 533.00 C 339.97 541.91 334.40 549.98 329.39 558.34 C 318.36 576.76 309.23 596.29 301.66 616.38 C 294.64 634.76 290.98 654.32 290.24 673.96 C 289.63 693.41 291.16 713.34 298.42 731.57 C 305.13 748.23 314.68 763.55 324.40 778.59 C 334.34 794.03 345.46 808.66 356.88 823.03 C 368.27 837.56 379.97 852.07 388.34 868.62 C 391.09 874.40 394.06 880.28 394.70 886.75 C 392.44 886.87 391.95 884.41 391.01 882.94 C 383.68 867.17 373.33 853.05 362.23 839.74 C 349.05 823.93 335.35 808.53 323.23 791.88 C 312.17 776.58 301.37 760.94 293.14 743.91 C 285.23 728.25 281.52 710.78 280.57 693.34 C 279.30 668.79 281.73 643.75 290.31 620.59 C 298.31 599.64 308.36 579.42 320.48 560.54 C 327.38 549.56 336.16 539.83 342.25 528.34 C 347.22 519.16 349.71 508.99 352.60 499.05 Z"/><path fill="#000000" opacity="1.00" d=" M 377.87 503.11 C 378.69 501.58 381.22 501.63 381.97 503.21 C 383.27 505.93 383.22 509.03 383.40 511.98 C 383.91 526.13 379.51 539.94 373.49 552.58 C 363.82 573.61 350.48 592.69 340.69 613.66 C 335.73 624.04 331.72 634.84 327.81 645.65 C 326.65 648.50 325.97 651.98 322.93 653.46 C 322.04 650.42 322.58 647.28 323.28 644.27 C 327.80 623.97 335.18 604.32 344.87 585.94 C 351.87 572.28 359.81 559.09 366.08 545.06 C 371.07 533.59 374.73 521.50 376.51 509.10 C 376.87 507.09 376.98 504.98 377.87 503.11 Z"/><path fill="#000000" opacity="0.51" d=" M 429.64 522.04 C 432.53 522.44 434.69 524.54 437.10 526.00 C 445.64 531.38 454.88 535.69 464.60 538.45 C 467.50 539.29 470.78 539.06 473.33 540.92 C 470.54 540.78 467.73 540.58 465.06 539.73 C 452.30 536.12 440.05 530.28 429.64 522.04 Z"/><path fill="#000000" opacity="0.55" d=" M 534.47 532.58 C 539.11 530.07 543.48 527.11 548.17 524.70 C 544.86 528.98 539.38 530.69 535.05 533.70 C 537.21 539.21 536.28 545.21 537.02 550.95 C 537.61 555.79 538.57 560.62 538.24 565.52 C 538.12 567.07 538.03 568.62 537.96 570.18 C 537.52 564.10 536.15 558.12 536.13 552.01 C 536.19 545.47 534.14 539.13 534.47 532.58 Z"/><path fill="#000000" opacity="0.49" d=" M 422.93 535.60 C 426.67 537.36 430.22 539.46 433.84 541.45 C 433.02 546.63 431.20 551.64 431.20 556.94 C 430.89 567.66 429.35 578.31 429.69 589.04 C 429.21 596.86 430.24 604.89 427.90 612.50 C 426.80 599.99 429.58 587.51 429.10 574.99 C 429.18 563.90 429.77 552.72 432.54 541.94 C 429.25 540.02 425.21 538.84 422.93 535.60 Z"/><path fill="#000000" opacity="0.60" d=" M 517.17 538.20 C 521.02 540.04 524.69 536.27 528.61 536.05 C 526.88 545.27 527.67 554.68 527.50 564.01 C 527.60 572.94 527.16 581.92 528.34 590.81 C 528.89 595.23 528.79 599.69 529.17 604.13 C 530.10 611.38 531.86 618.59 531.74 625.93 C 529.88 623.32 530.41 619.99 529.93 617.00 C 526.26 596.57 526.60 575.72 526.53 555.03 C 526.41 549.19 526.86 543.37 526.94 537.53 C 522.42 538.92 518.24 541.44 513.41 541.65 C 513.46 541.18 513.56 540.24 513.62 539.77 C 514.62 539.17 515.64 538.58 516.66 537.99 L 517.17 538.20 Z"/><path fill="#000000" opacity="0.56" d=" M 495.58 542.38 C 498.91 540.32 503.32 541.07 507.12 540.63 C 509.89 540.15 510.83 544.32 508.19 545.12 C 493.82 552.22 477.21 553.08 461.53 551.13 C 453.26 550.05 445.34 547.44 437.46 544.81 C 436.91 550.91 438.65 556.86 438.79 562.94 C 439.02 567.27 438.93 571.65 439.79 575.93 C 441.06 582.54 439.94 589.34 441.09 595.97 C 441.62 599.52 441.96 603.15 441.33 606.73 C 438.88 600.01 440.93 592.78 439.43 585.91 C 438.11 579.78 438.64 573.47 437.93 567.27 C 436.93 559.41 436.99 551.46 435.71 543.63 C 440.05 543.39 443.81 546.10 447.96 546.96 C 457.69 549.98 467.92 550.73 478.05 551.11 C 488.66 550.02 500.04 548.94 509.13 542.84 C 504.64 542.13 500.09 542.62 495.58 542.38 Z"/><path fill="#000000" opacity="0.42" d=" M 538.24 565.52 C 540.19 569.52 540.03 574.43 539.39 578.74 C 538.83 575.90 538.18 573.07 537.96 570.18 C 538.03 568.62 538.12 567.07 538.24 565.52 Z"/><path fill="#000000" opacity="0.49" d=" M 539.50 580.83 C 541.51 583.49 541.16 586.91 541.63 590.03 C 543.60 601.67 545.86 613.26 547.57 624.93 C 548.06 629.45 548.62 633.99 549.56 638.45 C 551.21 640.05 553.79 640.45 555.08 642.49 C 552.59 641.53 549.06 640.98 548.33 637.93 C 546.73 632.40 547.05 626.54 545.71 620.95 C 544.00 607.52 540.42 594.34 539.50 580.83 Z"/><path fill="#000000" opacity="0.25" d=" M 441.73 612.69 C 443.99 616.02 443.36 620.27 443.67 624.08 C 443.53 627.22 444.37 630.99 441.71 633.34 C 441.84 626.46 441.64 619.58 441.73 612.69 Z"/><path fill="#000000" opacity="0.53" d=" M 424.51 636.13 C 425.91 632.49 426.36 628.62 426.70 624.78 L 427.52 626.21 C 427.70 629.67 427.48 633.80 424.51 636.13 Z"/><path fill="#000000" opacity="0.49" d=" M 532.32 628.66 C 534.20 634.86 533.08 642.15 537.48 647.41 C 540.98 650.96 546.20 651.65 550.71 653.24 C 564.55 657.14 577.09 664.37 589.48 671.47 C 593.57 673.88 597.85 675.99 601.65 678.86 C 600.36 678.75 599.17 678.39 598.09 677.75 C 587.59 671.72 577.17 665.51 566.24 660.27 C 558.56 656.60 550.28 654.47 542.26 651.75 C 536.15 649.74 532.70 643.31 532.76 637.13 C 532.46 634.31 532.30 631.48 532.32 628.66 Z"/><path fill="#000000" opacity="0.50" d=" M 382.65 673.25 C 398.91 663.03 418.35 658.88 434.09 647.70 C 432.49 651.20 428.42 652.43 425.41 654.44 C 412.78 660.67 399.47 665.45 386.95 671.94 C 385.61 672.65 384.12 672.97 382.65 673.25 Z"/><path fill="#000000" opacity="0.47" d=" M 571.35 651.14 C 573.05 651.29 574.60 652.06 576.00 653.02 C 594.10 664.66 612.08 676.52 630.68 687.37 C 632.56 688.51 634.80 689.34 636.01 691.32 C 628.32 687.93 621.49 682.94 614.21 678.79 C 599.81 669.75 585.42 660.67 571.35 651.14 Z"/><path fill="#000000" opacity="0.48" d=" M 372.86 667.00 C 374.29 666.06 375.88 665.39 377.57 665.07 C 372.13 669.26 366.00 672.41 360.30 676.23 C 353.74 680.11 347.76 684.91 340.97 688.39 C 341.76 687.03 342.94 685.99 344.28 685.22 C 353.76 679.07 363.24 672.93 372.86 667.00 Z"/><path fill="#000000" opacity="0.48" d=" M 627.51 693.02 C 631.64 694.50 635.45 696.68 639.35 698.67 C 643.37 700.75 647.62 702.38 651.46 704.81 C 646.03 704.05 641.47 700.75 636.58 698.53 C 633.58 696.68 629.74 695.92 627.51 693.02 Z"/><text x="0" y="935" fill="#000000" font-size="5px" font-weight="bold" font-family="'Helvetica Neue', Helvetica, Arial-Unicode, Arial, Sans-serif">Created by LSE Designs</text><text x="0" y="940" fill="#000000" font-size="5px" font-weight="bold" font-family="'Helvetica Neue', Helvetica, Arial-Unicode, Arial, Sans-serif">from the Noun Project</text></svg>