<?xml version="1.0" encoding="utf-8"?>
<!-- Generator: Adobe Illustrator 20.1.0, SVG Export Plug-In . SVG Version: 6.00 Build 0)  -->
<svg version="1.1" id="Layer_1" xmlns="http://www.w3.org/2000/svg" xmlns:xlink="http://www.w3.org/1999/xlink" x="0px" y="0px"
	 viewBox="0 0 216 215.9" style="enable-background:new 0 0 216 215.9;" xml:space="preserve">
<style type="text/css">
	.st0{fill:#FFFFFF;}
</style>
<rect x="-0.1" y="0.1" class="st0" width="216" height="216"/>
<title>glasses</title>
<desc>Created with Sketch.</desc>
<g sketch:type="MSPage">
	<g sketch:type="MSArtboardGroup">
		<path sketch:type="MSShapeGroup" d="M144.8,81.5c-0.2-0.1-6-2.5-16.3-2.5c-5.7,0-8.8,0.8-11.6,1.5c-2.3,0.6-4.2,1.1-7.3,1.1
			c-3.1,0-5-0.5-7.3-1.1c-2.7-0.7-5.8-1.5-11.6-1.5c-10.3,0-16.1,2.4-16.3,2.5c-0.3,0.1-0.5,0.4-0.5,0.7l-0.3,4.1
			c0,0.4,0.2,0.7,0.6,0.8c0.4,0.1,0.9,0.4,0.9,0.5c0.1,0.1,0.1,0.6,0.3,1.2c0.5,2.1,1.3,6,2.4,8.6c1.2,3,2.5,4.3,5.6,5.5
			c1.8,0.7,4.6,1.2,7.3,1.2c2.6,0,5.1-0.4,7.1-1.2c5.2-2.1,6.5-5.3,8.1-9.3c0.2-0.6,0.4-1.1,0.6-1.6c1.1-3,1.3-3.3,3.1-3.3
			s2,0.4,3.1,3.3c0.2,0.5,0.4,1,0.6,1.6c1.6,4,2.8,7.2,8.1,9.3c2,0.8,4.5,1.2,7.1,1.2c2.7,0,5.5-0.4,7.3-1.2c3-1.2,4.3-2.5,5.6-5.5
			c1.1-2.6,1.9-6.5,2.4-8.5c0.2-0.7,0.3-1.1,0.3-1.3c0.1-0.1,0.5-0.4,0.9-0.6c0.4-0.1,0.6-0.5,0.6-0.8l-0.3-4.1
			C145.3,81.9,145.1,81.6,144.8,81.5L144.8,81.5L144.8,81.5z M100.7,96c-1.6,3.2-5.1,4.8-10.2,4.8c-4.1,0-6.7-0.9-8.2-2.8
			c-1.5-1.9-3.3-9.9-2.1-12.3c1.1-2.4,6.4-3.2,10.9-3.2c4.8,0,10.4,0.9,11.6,2.9C103.8,87.4,103.1,91.4,100.7,96L100.7,96L100.7,96z
			 M137.1,98c-1.6,1.9-4.1,2.8-8.2,2.8c-5.2,0-8.6-1.6-10.2-4.8c-2.4-4.6-3.1-8.6-1.9-10.7c1.2-2,6.8-2.9,11.6-2.9
			c4.5,0,9.8,0.8,10.9,3.2C140.4,88.1,138.6,96.1,137.1,98L137.1,98L137.1,98z"/>
	</g>
</g>
<path d="M102.9,26.9c3.1-0.6,6.4-0.8,9.5-0.5c3.1,0.3,6.2,0.9,9.2,1.8c2.2,0.7,4.2,1.8,6.2,3.1c-1.9-0.9-3.7-1.9-5.8-2.5
	c-3.1-0.9-6.3-1.4-9.5-1.6c-3.9-0.3-7.8,0.3-11.6,1.2c-7.1,1.7-14,4.4-20,8.4c-3.1,2.1-5.8,4.8-7.9,7.8c-3.6,5.2-5.6,11.2-7,17.3
	c-1.1,4.6-2,9.2-2.1,13.9c-0.1,6.7,1.2,13.3,2.3,19.9c1,5.8,2.1,11.7,1.3,17.6c-0.5,4.2-1.7,8.3-3.5,12.2c-1.5,3.2-3.3,6.3-5,9.4
	c-2.1,3.8-4.3,7.4-6,11.4c-2,4.8-3.3,10-3,15.3c0.2,3.9,1,7.7,2,11.4c0.2,0.6,0.3,1.2,0.4,1.9c-0.6-1.1-0.8-2.3-1.2-3.5
	c-1.1-4.1-1.9-8.3-1.8-12.5c0.1-4.4,1.2-8.8,2.8-12.9c1.7-4.3,4.1-8.4,6.2-12.5c1.7-3.3,3.5-6.5,4.9-9.9c1.8-4.7,2.7-9.6,2.6-14.6
	c-0.2-5.3-1.4-10.5-2.3-15.8c-0.8-4.9-1.6-9.8-1.8-14.7c-0.2-4.2,0.4-8.3,1.2-12.4c1.3-6.5,2.9-13,6.2-18.8c1.8-3.3,4.2-6.3,7.1-8.9
	c4.2-3.6,9.3-6.2,14.6-8.2C94.8,28.7,98.8,27.6,102.9,26.9z"/>
<path d="M128.5,34.9c1.7-0.1,3.3,0.2,5,0.4c4.4,0.5,8.7,2,12.5,4.2c3.6,2.1,6.1,5.4,8,8.9c1.8,3,3,6.3,3.7,9.7
	c1.2,5.5,1.3,11.1,0.8,16.7c-0.4,4.6-1,9.1-1.6,13.7c-0.7,5.9-1.3,11.9-1.7,17.8c-0.7,12.2,2,24.3,5.3,36c0.3,0.8,0.8,1.5,1.2,2.2
	c2,3.2,3.6,6.7,4.4,10.4c0.7,3.2,0.9,6.6,0,9.8c-0.9,3.3-2.6,6.3-3.9,9.4c-1.3,2.8-2.4,5.6-3.5,8.5c-0.3,0.7-0.5,1.4-1.1,2
	c-0.3-0.6,0-1.3,0.1-1.9c1-3.6,2.2-7.1,3.6-10.6c1.1-2.9,2.4-5.8,2.9-8.9c0.6-3.5,0.1-7.1-1-10.5c-1-3.3-2.6-6.4-4.3-9.5
	c-2.3-4.2-4.7-8.4-6.5-12.8c-0.7-2.1-1.5-4.2-1.5-6.4c1.5,6.1,5.1,11.4,8.3,16.7c-2.6-8.6-4.7-17.4-5.5-26.3
	c-0.5-5.6-0.2-11.2,0.1-16.8c0.3-5.3,0.9-10.6,1.5-15.8c0.6-5.5,1.3-11.1,0.9-16.7c-0.3-4.5-1.2-9-3-13.3c-1.3-2.9-2.9-5.8-5.1-8.3
	c-2.4-2.8-5.9-4.6-9.4-6c-2.9-1.2-6-1.7-9.1-2.2C129.4,35.2,128.9,35.2,128.5,34.9z"/>
<path d="M121.2,48.4c0.3-0.8,0.5-1.7,1.1-2.3c-0.3,2.5-0.9,4.9-2.1,7.2c-1.7,3.1-4.3,5.7-7.1,7.9c-2.8,2.1-5.9,3.8-8.9,5.6
	c-4,2.4-7.9,4.8-11.6,7.6c-6.9,5.1-12.2,12.2-14,20.3c-0.2,0.9,0.3,1.7,0.5,2.5c0.6,1.8,1.3,3.6,2.1,5.3v0c1.4,3.2,2.9,6.5,5.1,9.3
	c1.7,2.3,3.3,4.7,5.3,6.8c1.9,1.8,3.9,3.6,6.1,5c2.3,1.7,5,2.9,7.9,3.7c0.6,0.2,1.2,0.2,1.8,0.2c0.7,0,1.4,0.2,2.1,0.3
	c0.9,0.1,1.9,0,2.8,0c1,0,2-0.1,3,0.1c-2,1.3-4.5,1.5-6.9,1.7c-2.2-0.1-4.5-0.2-6.7-0.9c-0.9-0.2-1.8-0.7-2.7-0.7
	c0.3,1.6,0.3,3.3,0.5,4.9c0.2,1.3,0,2.6,0.3,3.9c0.3,1.4-0.1,2.9,0.4,4.3c0.1,0.4,0.1,0.8,0.1,1.2c0,1.4,0,2.9,0,4.3
	c-0.1,1.1-0.8,2.2-1.7,3c-3.5,2.3-7.8,3.2-11.4,5.3c-0.3,0.1-0.5,0.3-0.8,0.4c-3.9,1.9-7.6,4-11.5,5.9c-0.4,0.2-0.9,0.3-1.4,0.4
	c0-0.2,0-0.5,0-0.6c1.4-1.1,2.9-2,4.4-2.9c1.5-0.7,2.8-1.7,4.3-2.5c1.3-0.8,2.6-1.4,3.8-2.3c2.6-1.6,5.4-2.8,8-4.3
	c0.9-0.4,1.6-1.1,2.4-1.7c0.7-0.5,0.7-1.3,0.7-2.1c0-0.9,0-1.9,0.1-2.8c0.5-1.6,0.3-3.2,0.4-4.9c-0.1-2.2,0.3-4.4,0.3-6.7
	c0-1.1,0.4-2.1,0.6-3.2c-0.8-0.4-1.6-0.8-2.4-1.2c-2.7-1.4-5-3.5-7.2-5.6c-1-1.2-2.1-2.3-2.9-3.6c-0.6-1.2-1.6-2.3-2.2-3.4
	c-1-1.6-1.7-3.4-2.6-5l0,0c-0.5-1.5-1.3-3-1.8-4.5c-0.5-1.2-0.8-2.4-1.3-3.5c-0.2-0.5-0.3-0.9-0.3-1.4c-0.2,1.8-0.4,3.7-0.5,5.5
	c-0.1,0.5,0,1.1-0.5,1.4c-0.3-1.3-0.2-2.6-0.3-3.9c0.1-1.6,0-3.3,0.3-4.9c0.2-1.2-0.1-2.4-0.4-3.6c-0.4-1.3-0.5-2.7-0.8-4
	c-0.3-1.2-0.2-2.4-0.6-3.6c-0.3-1.9-0.5-3.7-0.4-5.6c0.1-1.3,0-2.7,0.1-4c0.5,5.4,1.4,10.7,2.8,16c0.1-0.2,0.2-0.5,0.2-0.7
	c1.5-5.4,4.5-10.4,8.4-14.6c2.9-3.1,6.4-5.6,10-7.9c4.1-2.7,8.3-5.1,12.5-7.6c3.7-2.1,7.1-4.7,9.7-8
	C119.6,52.1,120.5,50.2,121.2,48.4z"/>
<path d="M135.8,48.4c2.5,2.3,4.8,4.6,7,7.2c2.7,3.2,4.7,6.8,6.2,10.6c3.3,8.2,5,17.1,3.9,25.8c-0.6,4.9-1.5,9.8-2.4,14.7
	c-0.8,4.5-2,8.9-3.3,13.3c-1,3.1-1.5,6.4-1.8,9.6c-0.1,0.5,0,1.1-0.5,1.5c-0.3-1.6-0.1-3.3-0.1-5c0.3-4.3,1.7-8.5,2.5-12.8
	c1.1-5.1,1.5-10.3,2.4-15.4c0.8-4.7,1.4-9.4,1.1-14.1c-0.3-4.8-1-9.6-2.4-14.3c-1.3-4.3-3-8.5-5.6-12.2
	C140.9,54.2,138,51.5,135.8,48.4z"/>
<path d="M120.5,145c0-1.5-0.4-3-0.6-4.5c-0.1-0.9-0.1-1.8-0.2-2.8c-0.3-1.8-0.2-3.7-0.2-5.6c0-1.9-0.1-3.9,0.2-5.8
	c-0.9,0-1.7,0.8-2.5,0.4c1.6-0.8,3.2-1.7,4.6-2.7c1.7-1.2,3.1-2.7,4.6-4c2.2-2.4,4.1-5.1,5.7-7.9c0.2-0.4,0.4-0.8,0.7-1.3
	c0.1-0.1,0.2-0.3,0.2-0.4c0.3-0.5,0.7-1,0.9-1.6c1-2.1,2.2-4.2,3-6.4c2.3-6.3,4.4-12.7,5.6-19.2c0.1-0.4,0.1-0.7-0.1-1.1
	c-3.3-6.5-8.5-12-12.5-18.1c-2.8-4.3-5.1-9-5.8-14.1c1.3,4.3,3.4,8.3,5.9,12.1c3.3,4.9,7.5,9,11,13.8c0.7,1,1.3,2,2.1,3l0,0
	c0.3-1.5,0.3-3.1,0.4-4.7c0-1.4-0.1-2.7,0.2-4.1c0.1-0.1,0.3-0.2,0.4-0.3c0.2,2.8,0.4,5.5,0.3,8.3c0.1,1.3-0.3,2.6,0.2,3.8
	c1.7,3.5,2.3,7.3,2.6,11.2c0.3,4.9-0.4,9.8-0.8,14.7c-0.3,3.3-0.5,6.6-0.7,10c0,0.4-0.1,0.9-0.3,1.3c-0.6-0.6-0.5-1.5-0.6-2.3
	c-0.3-5.9,0.2-11.8,0.3-17.6c0.1-4.3-0.1-8.7-1.2-12.9c0,0.6,0,1.2,0,1.8c-0.6,1.9-0.5,3.8-1,5.7c-0.8,4.5-2.5,8.7-4.2,12.9
	c-0.1,0.2-0.2,0.4-0.2,0.6c-0.4,0.9-0.8,1.7-1.2,2.5c-0.4,0.7-0.8,1.4-1.2,2c-0.5,0.8-0.2,1.7-0.1,2.5c0.6,3.9,2.1,7.6,4,11.1
	c2.2,4,4.5,7.9,6.8,11.9c1.7,3,3.7,5.9,5.6,8.8c2.1,3.2,4,6.6,4.9,10.3c1.1,4.3,1.5,8.8,0.9,13.2c-0.5,3.4-1.3,6.8-2,10.1
	c-0.7,3-1.2,6.1-1.9,9.1c-0.1,0.3-0.1,0.9-0.6,1c0.1-3,0.7-5.9,1.2-8.8c0.7-3.9,1.5-7.8,1.9-11.7c0.3-3.9-0.2-7.9-1.2-11.7
	c-1.1-4.1-3.2-7.8-5.6-11.4c-1.9-2.8-3.7-5.6-5.4-8.5c-2.1-3.7-4.1-7.5-6-11.4c-1.5-3.2-2.8-6.6-3.3-10.1c-0.2-1.2-0.2-2.5-0.1-3.7
	c-0.1,0.3-0.2,0.6-0.4,0.8c-1.5,2.1-3.3,4-5,6c0.1,0.9,0,1.8,0.5,2.6c1.9,4.1,4.3,8,5.8,12.2c1.5,3.7,1.4,7.8,0.9,11.7
	c-0.1,0.7-0.1,1.5-0.8,2c-0.7-0.4-0.6-1.2-0.6-1.9c-0.1-2.7-0.1-5.4-0.7-8.1c-1-4.6-3.5-8.7-4.9-13.1c-0.4-1.5-1.1-3.2-0.5-4.7
	c0.1-0.2,0.2-0.7,0.2-0.9c-1.6,1.9-3.7,3.4-5.8,4.8c-1,0.5-2,1.1-3,1.6c-0.1,1.4,0.4,2.7,0.4,4c0,1.3,0.3,2.5,0.4,3.8
	c0,0.6,0.2,1.2,0.3,1.8c0,0.1,0,0.3,0,0.4c0.2,2.8,1,5.5,1.4,8.3c0.3,1.2,0.2,2.4,0.6,3.5c0.2,0.6,0.9,0.7,1.5,0.9
	c0.3,0.1,0.6,0.2,0.8,0.3c0.9,0.5,1.9,0.9,2.8,1.4c3.1,2,6.3,3.9,9.5,5.7c1.6,0.9,3.1,1.9,4.8,2.6c1.9,1,3.8,2.1,5.8,3
	c0.1,0.1,0.2,0.4,0.2,0.5c-0.9,0-1.8-0.4-2.6-0.8c-0.9-0.5-1.8-0.8-2.7-1.3c-0.9-0.4-1.7-0.9-2.6-1.2c-0.6-0.2-1.1-0.5-1.7-0.8
	c-1.3-0.8-2.8-1.4-4.1-2.2c-0.8-0.6-1.8-1-2.7-1.5c-2.8-1.5-5.5-3-8.6-3.8c-1-0.3-2.2-0.5-2.9-1.2c-1-1.1-0.7-2.6-1.1-3.9"/>
<path d="M72.6,89.5c-0.2-1.7-0.2-3.5-0.3-5.3c0.3,2.2,0.6,4.3,1,6.5c1.1,6,0.9,12.2-0.2,18.2c-0.9,5.1-2.4,10-4,15
	c-1.4,4.2-2.7,8.5-3.9,12.7c-1,3.6-2.1,7.3-2.8,11c-1,5.2-1.5,10.5-0.8,15.8c0.5,3.7,2,7.2,4.1,10.5c2.2,3.6,4.9,6.9,7.7,10.2
	c0.7,0.8,1.5,1.5,1.9,2.4c-0.7-0.3-1.2-0.8-1.7-1.3c-2.4-2.4-4.6-4.9-6.7-7.6c-1.8-2.5-3.6-5.1-4.9-7.9c-2-4.2-2.5-8.8-2.5-13.3
	c0-4.6,0.7-9.2,1.9-13.7c1.2-4.7,2.6-9.3,4-13.9c2.6-8.4,6.1-16.7,7.3-25.5C73.3,98.7,73.2,94.1,72.6,89.5z"/>
<path d="M86.3,119.5c0.2-0.3,0.7-0.3,0.9,0c0.3,0.6,0.3,1.2,0.3,1.8c0.1,2.9-0.9,5.8-2.2,8.4c-2.1,4.4-5.1,8.3-7.3,12.7
	c-1.1,2.2-2,4.4-2.9,6.6c-0.3,0.6-0.4,1.3-1.1,1.6c-0.2-0.6-0.1-1.3,0.1-1.9c1-4.2,2.6-8.3,4.8-12.1c1.6-2.8,3.3-5.6,4.7-8.5
	c1.1-2.4,1.9-4.9,2.3-7.5C86.1,120.3,86.1,119.9,86.3,119.5z"/>
<rect x="72" y="76.7" transform="matrix(0.9422 -0.335 0.335 0.9422 -22.2011 29.4041)" class="st0" width="4.4" height="4.8"/>
<rect x="143.8" y="73.4" transform="matrix(-0.5984 -0.8012 0.8012 -0.5984 171.7281 239.841)" class="st0" width="4.4" height="6.9"/>
<rect x="141.8" y="69.3" transform="matrix(0.997 -7.770237e-02 7.770237e-02 0.997 -5.2145 11.409)" class="st0" width="4.4" height="6.9"/>
<g>
	<path class="st0" d="M102.2,116.7c4.6,3.5,10,3.9,13,1.4c0.6-0.5,1.8-1.7,2.3-4.2"/>
	<path d="M102.2,116.7c0,0,0.3,0.1,0.7,0.4c0.5,0.3,1.1,0.6,1.9,0.9c0.4,0.2,0.8,0.3,1.3,0.5c0.5,0.2,1,0.3,1.5,0.4
		c0.5,0.1,1.1,0.2,1.6,0.3c0.6,0.1,1.1,0.1,1.7,0c0.3,0,0.6-0.1,0.8-0.1c0.3-0.1,0.5-0.1,0.8-0.2c0.5-0.2,1-0.3,1.5-0.6
		c0.2-0.1,0.4-0.2,0.6-0.4c0.2-0.1,0.4-0.3,0.6-0.4c0.3-0.3,0.7-0.7,0.9-1c0.5-0.7,0.8-1.3,1-1.8c0.2-0.5,0.3-0.8,0.3-0.8
		s0,0.1,0,0.2c0,0.1,0,0.3-0.1,0.6c-0.1,0.5-0.3,1.3-0.7,2.1c-0.2,0.4-0.5,0.8-0.9,1.2c-0.2,0.2-0.4,0.4-0.6,0.6
		c-0.2,0.2-0.5,0.4-0.7,0.5c-0.5,0.3-1.1,0.6-1.7,0.7c-0.3,0.1-0.6,0.1-0.9,0.2c-0.3,0-0.6,0.1-0.9,0.1c-0.6,0-1.2,0-1.8-0.1
		c-0.6-0.1-1.2-0.2-1.7-0.4c-0.5-0.2-1.1-0.4-1.5-0.6c-0.5-0.2-0.9-0.4-1.3-0.7c-0.4-0.2-0.7-0.5-1-0.7c-0.3-0.2-0.5-0.4-0.7-0.6
		C102.4,116.9,102.2,116.7,102.2,116.7z"/>
</g>
<g>
	<path class="st0" d="M116.8,112.7c0.5-0.5,1.3-0.7,2-0.5c0.8,0.2,1.2,1,0.7,1.7"/>
	<path d="M116.8,112.7c0,0,0.1-0.3,0.5-0.6c0.2-0.1,0.4-0.3,0.7-0.3c0.1,0,0.3,0,0.5,0c0.2,0,0.3,0,0.5,0.1c0.1,0,0.3,0.1,0.4,0.2
		c0.1,0.1,0.3,0.2,0.3,0.3c0.2,0.3,0.3,0.6,0.2,0.8c-0.1,0.3-0.2,0.4-0.3,0.5c-0.1,0.1-0.2,0.1-0.2,0.1c0,0,0.1-0.3,0-0.6
		c0-0.2-0.1-0.3-0.3-0.4c-0.1-0.1-0.2-0.1-0.2-0.2c-0.1-0.1-0.1-0.1-0.3-0.1c-0.1,0-0.2-0.1-0.3-0.1c-0.1,0-0.2,0-0.3,0
		c-0.2,0-0.4,0-0.6,0C117.1,112.6,116.8,112.7,116.8,112.7z"/>
</g>
</svg>
