<svg xmlns="http://www.w3.org/2000/svg" xmlns:xlink="http://www.w3.org/1999/xlink" version="1.1" x="0px" y="0px" viewBox="0 0 100 125" enable-background="new 0 0 100 100" xml:space="preserve"><path d="M89.953,88.824H10.199c-3.461,0-6.277-3.101-6.277-6.912V28.22c0-3.812,2.816-6.912,6.277-6.912h79.754  c3.461,0,6.277,3.101,6.277,6.912v53.692C96.23,85.723,93.414,88.824,89.953,88.824z M10.199,25.143  c-1.347,0-2.441,1.38-2.441,3.077v53.692c0,1.696,1.095,3.077,2.441,3.077h79.754c1.347,0,2.441-1.38,2.441-3.077V28.22  c0-1.697-1.095-3.077-2.441-3.077H10.199z"/><path d="M49.354,70.145c-3.464,0-6.281-2.817-6.281-6.281v-7.707c0-3.463,2.817-6.281,6.281-6.281c3.463,0,6.28,2.817,6.28,6.281  v7.707C55.635,67.327,52.817,70.145,49.354,70.145z M49.354,53.649c-1.383,0-2.508,1.125-2.508,2.507v7.707  c0,1.383,1.125,2.507,2.508,2.507s2.507-1.125,2.507-2.507v-7.707C51.861,54.774,50.737,53.649,49.354,53.649z"/><path d="M72.514,24.572H27.639v-3.714c0-8.058,6.437-14.866,14.055-14.866h16.766c7.618,0,14.055,6.808,14.055,14.866V24.572z   M31.412,20.798H68.74c-0.031-5.885-4.822-11.034-10.281-11.034H41.693C36.234,9.765,31.443,14.914,31.412,20.798z"/><path d="M63.897,24.603H36.254v-2.384c0-5.208,4.19-9.777,8.967-9.777h9.711c4.776,0,8.966,4.569,8.966,9.777V24.603z   M40.283,20.768h19.585c-0.603-2.309-2.548-4.491-4.937-4.491h-9.711C42.832,16.276,40.886,18.459,40.283,20.768z"/><path d="M80.1,62.001H51.861v-5.844c0-1.383-1.124-2.507-2.507-2.507s-2.508,1.125-2.508,2.507v5.844H20.053  c-7.445,0-16.1-6.14-16.1-14.055V29.175c0-8.377,7.185-8.377,12.43-8.377l1.236,0.001l66.15-0.001c5.245,0,12.43,0,12.43,8.377  v18.771C96.199,55.861,87.545,62.001,80.1,62.001z M55.635,58.228H80.1c5.549,0,12.326-4.744,12.326-10.282V29.175  c0-4.031-1.845-4.604-8.656-4.604l-1.236,0.001l-66.15-0.001c-6.812,0-8.656,0.573-8.656,4.604v18.771  c0,5.538,6.777,10.282,12.326,10.282h23.021v-2.071c0-3.463,2.817-6.281,6.281-6.281c3.463,0,6.28,2.817,6.28,6.281V58.228z"/><text x="0" y="115" fill="#000000" font-size="5px" font-weight="bold" font-family="'Helvetica Neue', Helvetica, Arial-Unicode, Arial, Sans-serif">Created by Celina Chang</text><text x="0" y="120" fill="#000000" font-size="5px" font-weight="bold" font-family="'Helvetica Neue', Helvetica, Arial-Unicode, Arial, Sans-serif">from the Noun Project</text></svg>