<svg xmlns="http://www.w3.org/2000/svg" xmlns:xlink="http://www.w3.org/1999/xlink" version="1.0" x="0px" y="0px" viewBox="0 0 50 62.5" enable-background="new 0 0 50 50" xml:space="preserve"><g><g><path fill="#000000" d="M1,18v22h48V18H1z M30,21h5v4h-5V21z M31,27v4h-5v-4H31z M24,21h5v4h-5V21z M25,27v4h-5v-4H25z M17,21h5v4    h-5V21z M18,27v4h-5v-4H18z M11,21h5v4h-5V21z M5,21h5v4H5V21z M5,27h7v4H5V27z M10,37H5v-4h5V37z M38,37h-4.307h-1.6h-4.801h-1.6    h-4.8H11v-4h9.893h4.8h1.6h4.801h1.6H38V37z M45,37h-5v-4h5V37z M45,31h-6v-4h6V31z M45,25h-8v-4h8V25z"/></g><rect x="23" y="16" fill="#000000" width="4" height="2"/><path fill="#000000" d="M10.151,16.753c-2.747,0-5.388-1.204-7.242-5.056l1.802-0.867c2.676,5.558,7.082,4.224,12.563,1.901   c1.72-0.729,3.206-1.358,4.418-1.431c1.567-0.097,2.77,0.33,3.578,1.258c1.366,1.571,0.946,3.896,0.895,4.156l-1.962-0.391   c0.085-0.444,0.172-1.752-0.446-2.457c-0.38-0.433-1.033-0.624-1.945-0.57c-0.869,0.052-2.272,0.646-3.757,1.276   C15.774,15.539,12.909,16.753,10.151,16.753z"/></g><text x="0" y="65" fill="#000000" font-size="5px" font-weight="bold" font-family="'Helvetica Neue', Helvetica, Arial-Unicode, Arial, Sans-serif">Created by Mister Pixel</text><text x="0" y="70" fill="#000000" font-size="5px" font-weight="bold" font-family="'Helvetica Neue', Helvetica, Arial-Unicode, Arial, Sans-serif">from the Noun Project</text></svg>